{
	"asset":{
		"generator":"Khronos glTF Blender I/O v4.1.62",
		"version":"2.0"
	},
	"extensionsUsed":[
		"KHR_materials_specular",
		"KHR_materials_ior"
	],
	"scene":0,
	"scenes":[
		{
			"name":"Scene",
			"nodes":[
				0
			]
		}
	],
	"nodes":[
		{
			"mesh":0,
			"name":"Body_\u4f18\u83c8.001",
			"rotation":[
				0.7071068286895752,
				0,
				0,
				0.7071068286895752
			]
		}
	],
	"materials":[
		{
			"doubleSided":true,
			"extensions":{
				"KHR_materials_specular":{
					"specularFactor":0
				},
				"KHR_materials_ior":{
					"ior":0
				}
			},
			"name":"\u76ee",
			"pbrMetallicRoughness":{
				"baseColorTexture":{
					"index":0
				},
				"metallicFactor":0,
				"roughnessFactor":0.05131673812866211
			}
		},
		{
			"doubleSided":true,
			"extensions":{
				"KHR_materials_specular":{
					"specularFactor":0
				},
				"KHR_materials_ior":{
					"ior":0
				}
			},
			"name":"\u53d1+",
			"pbrMetallicRoughness":{
				"baseColorTexture":{
					"index":1
				},
				"metallicFactor":0,
				"roughnessFactor":0.05131673812866211
			}
		},
		{
			"doubleSided":true,
			"extensions":{
				"KHR_materials_specular":{
					"specularFactor":0
				},
				"KHR_materials_ior":{
					"ior":0
				}
			},
			"name":"\u62ab\u98ce4_2",
			"pbrMetallicRoughness":{
				"baseColorTexture":{
					"index":2
				},
				"metallicFactor":0,
				"roughnessFactor":0.05131673812866211
			}
		},
		{
			"doubleSided":true,
			"extensions":{
				"KHR_materials_specular":{
					"specularFactor":0
				},
				"KHR_materials_ior":{
					"ior":0
				}
			},
			"name":"a",
			"pbrMetallicRoughness":{
				"baseColorTexture":{
					"index":3
				},
				"metallicFactor":0,
				"roughnessFactor":0.05131673812866211
			}
		},
		{
			"doubleSided":true,
			"extensions":{
				"KHR_materials_specular":{
					"specularFactor":0
				},
				"KHR_materials_ior":{
					"ior":0
				}
			},
			"name":"\u62ab\u98ce2",
			"pbrMetallicRoughness":{
				"baseColorTexture":{
					"index":4
				},
				"metallicFactor":0,
				"roughnessFactor":0.05131673812866211
			}
		},
		{
			"doubleSided":true,
			"extensions":{
				"KHR_materials_specular":{
					"specularFactor":0
				},
				"KHR_materials_ior":{
					"ior":0
				}
			},
			"name":"\u4e8c\u91cd",
			"pbrMetallicRoughness":{
				"baseColorTexture":{
					"index":5
				},
				"metallicFactor":0,
				"roughnessFactor":0.05131673812866211
			}
		}
	],
	"meshes":[
		{
			"name":"Body_\u4f18\u83c8.001",
			"primitives":[
				{
					"attributes":{
						"POSITION":0,
						"NORMAL":1,
						"TEXCOORD_0":2
					},
					"indices":3,
					"material":0
				},
				{
					"attributes":{
						"POSITION":4,
						"NORMAL":5,
						"TEXCOORD_0":6
					},
					"indices":7,
					"material":1
				},
				{
					"attributes":{
						"POSITION":8,
						"NORMAL":9,
						"TEXCOORD_0":10
					},
					"indices":11,
					"material":2
				},
				{
					"attributes":{
						"POSITION":12,
						"NORMAL":13,
						"TEXCOORD_0":14
					},
					"indices":15,
					"material":3
				},
				{
					"attributes":{
						"POSITION":16,
						"NORMAL":17,
						"TEXCOORD_0":18
					},
					"indices":19,
					"material":4
				},
				{
					"attributes":{
						"POSITION":20,
						"NORMAL":21,
						"TEXCOORD_0":22
					},
					"indices":23,
					"material":5
				}
			]
		}
	],
	"textures":[
		{
			"sampler":0,
			"source":0
		},
		{
			"sampler":0,
			"source":1
		},
		{
			"sampler":0,
			"source":2
		},
		{
			"sampler":0,
			"source":3
		},
		{
			"sampler":0,
			"source":4
		},
		{
			"sampler":0,
			"source":5
		}
	],
	"images":[
		{
			"mimeType":"image/png",
			"name":"b",
			"uri":"b.png"
		},
		{
			"mimeType":"image/png",
			"name":"sph",
			"uri":"sph.png"
		},
		{
			"mimeType":"image/png",
			"name":"c",
			"uri":"c.png"
		},
		{
			"mimeType":"image/png",
			"name":"a",
			"uri":"a.png"
		},
		{
			"mimeType":"image/png",
			"name":"d",
			"uri":"d.png"
		},
		{
			"mimeType":"image/png",
			"name":"e",
			"uri":"e.png"
		}
	],
	"accessors":[
		{
			"bufferView":0,
			"componentType":5126,
			"count":3071,
			"max":[
				0.146015003323555,
				0.16826899349689484,
				-1.0645400285720825
			],
			"min":[
				-0.2197750061750412,
				-0.16315899789333344,
				-1.7322160005569458
			],
			"type":"VEC3"
		},
		{
			"bufferView":1,
			"componentType":5126,
			"count":3071,
			"type":"VEC3"
		},
		{
			"bufferView":2,
			"componentType":5126,
			"count":3071,
			"type":"VEC2"
		},
		{
			"bufferView":3,
			"componentType":5123,
			"count":11349,
			"type":"SCALAR"
		},
		{
			"bufferView":4,
			"componentType":5126,
			"count":1511,
			"max":[
				0.14528599381446838,
				0.157819002866745,
				-1.3616759777069092
			],
			"min":[
				-0.15113399922847748,
				-0.07600399851799011,
				-1.7322160005569458
			],
			"type":"VEC3"
		},
		{
			"bufferView":5,
			"componentType":5126,
			"count":1511,
			"type":"VEC3"
		},
		{
			"bufferView":6,
			"componentType":5126,
			"count":1511,
			"type":"VEC2"
		},
		{
			"bufferView":7,
			"componentType":5123,
			"count":6207,
			"type":"SCALAR"
		},
		{
			"bufferView":8,
			"componentType":5126,
			"count":12842,
			"max":[
				0.6093649864196777,
				0.1839359998703003,
				0.0008510000188834965
			],
			"min":[
				-0.6093649864196777,
				-0.25689899921417236,
				-1.5013970136642456
			],
			"type":"VEC3"
		},
		{
			"bufferView":9,
			"componentType":5126,
			"count":12842,
			"type":"VEC3"
		},
		{
			"bufferView":10,
			"componentType":5126,
			"count":12842,
			"type":"VEC2"
		},
		{
			"bufferView":11,
			"componentType":5123,
			"count":44052,
			"type":"SCALAR"
		},
		{
			"bufferView":12,
			"componentType":5126,
			"count":595,
			"max":[
				0.17439599335193634,
				0.13075199723243713,
				-0.8258280158042908
			],
			"min":[
				-0.17439599335193634,
				-0.035422999411821365,
				-1.590567946434021
			],
			"type":"VEC3"
		},
		{
			"bufferView":13,
			"componentType":5126,
			"count":595,
			"type":"VEC3"
		},
		{
			"bufferView":14,
			"componentType":5126,
			"count":595,
			"type":"VEC2"
		},
		{
			"bufferView":15,
			"componentType":5123,
			"count":2487,
			"type":"SCALAR"
		},
		{
			"bufferView":16,
			"componentType":5126,
			"count":185,
			"max":[
				-0.050533998757600784,
				-0.022210000082850456,
				-0.4679110050201416
			],
			"min":[
				-0.3986330032348633,
				-0.3077020049095154,
				-1.4195300340652466
			],
			"type":"VEC3"
		},
		{
			"bufferView":17,
			"componentType":5126,
			"count":185,
			"type":"VEC3"
		},
		{
			"bufferView":18,
			"componentType":5126,
			"count":185,
			"type":"VEC2"
		},
		{
			"bufferView":19,
			"componentType":5123,
			"count":906,
			"type":"SCALAR"
		},
		{
			"bufferView":20,
			"componentType":5126,
			"count":2020,
			"max":[
				0.08702799677848816,
				0.14629599452018738,
				-1.4794039726257324
			],
			"min":[
				-0.08702799677848816,
				0.009525000117719173,
				-1.7004899978637695
			],
			"type":"VEC3"
		},
		{
			"bufferView":21,
			"componentType":5126,
			"count":2020,
			"type":"VEC3"
		},
		{
			"bufferView":22,
			"componentType":5126,
			"count":2020,
			"type":"VEC2"
		},
		{
			"bufferView":23,
			"componentType":5123,
			"count":8901,
			"type":"SCALAR"
		}
	],
	"bufferViews":[
		{
			"buffer":0,
			"byteLength":36852,
			"byteOffset":0,
			"target":34962
		},
		{
			"buffer":0,
			"byteLength":36852,
			"byteOffset":36852,
			"target":34962
		},
		{
			"buffer":0,
			"byteLength":24568,
			"byteOffset":73704,
			"target":34962
		},
		{
			"buffer":0,
			"byteLength":22698,
			"byteOffset":98272,
			"target":34963
		},
		{
			"buffer":0,
			"byteLength":18132,
			"byteOffset":120972,
			"target":34962
		},
		{
			"buffer":0,
			"byteLength":18132,
			"byteOffset":139104,
			"target":34962
		},
		{
			"buffer":0,
			"byteLength":12088,
			"byteOffset":157236,
			"target":34962
		},
		{
			"buffer":0,
			"byteLength":12414,
			"byteOffset":169324,
			"target":34963
		},
		{
			"buffer":0,
			"byteLength":154104,
			"byteOffset":181740,
			"target":34962
		},
		{
			"buffer":0,
			"byteLength":154104,
			"byteOffset":335844,
			"target":34962
		},
		{
			"buffer":0,
			"byteLength":102736,
			"byteOffset":489948,
			"target":34962
		},
		{
			"buffer":0,
			"byteLength":88104,
			"byteOffset":592684,
			"target":34963
		},
		{
			"buffer":0,
			"byteLength":7140,
			"byteOffset":680788,
			"target":34962
		},
		{
			"buffer":0,
			"byteLength":7140,
			"byteOffset":687928,
			"target":34962
		},
		{
			"buffer":0,
			"byteLength":4760,
			"byteOffset":695068,
			"target":34962
		},
		{
			"buffer":0,
			"byteLength":4974,
			"byteOffset":699828,
			"target":34963
		},
		{
			"buffer":0,
			"byteLength":2220,
			"byteOffset":704804,
			"target":34962
		},
		{
			"buffer":0,
			"byteLength":2220,
			"byteOffset":707024,
			"target":34962
		},
		{
			"buffer":0,
			"byteLength":1480,
			"byteOffset":709244,
			"target":34962
		},
		{
			"buffer":0,
			"byteLength":1812,
			"byteOffset":710724,
			"target":34963
		},
		{
			"buffer":0,
			"byteLength":24240,
			"byteOffset":712536,
			"target":34962
		},
		{
			"buffer":0,
			"byteLength":24240,
			"byteOffset":736776,
			"target":34962
		},
		{
			"buffer":0,
			"byteLength":16160,
			"byteOffset":761016,
			"target":34962
		},
		{
			"buffer":0,
			"byteLength":17802,
			"byteOffset":777176,
			"target":34963
		}
	],
	"samplers":[
		{
			"magFilter":9729,
			"minFilter":9987
		}
	],
	"buffers":[
		{
			"byteLength":794980,
			"uri":"eula.bin"
		}
	]
}
